<mxfile host="app.diagrams.net" agent="Mozilla/5.0 (Windows NT 10.0; Win64; x64) AppleWebKit/537.36 (KHTML, like Gecko) Chrome/132.0.0.0 Safari/537.36 Edg/132.0.0.0" version="26.0.11">
  <diagram name="Page-1" id="iPzi8OFQoKdCEgc0ulGP">
    <mxGraphModel dx="1448" dy="638" grid="1" gridSize="10" guides="1" tooltips="1" connect="1" arrows="1" fold="1" page="1" pageScale="1" pageWidth="850" pageHeight="1100" math="0" shadow="0">
      <root>
        <mxCell id="0" />
        <mxCell id="1" parent="0" />
        <mxCell id="dvqzMWSoMtfo2e3I9cfD-1" value="" style="swimlane;startSize=0;" vertex="1" parent="1">
          <mxGeometry x="230" y="70" width="420" height="640" as="geometry" />
        </mxCell>
        <mxCell id="dvqzMWSoMtfo2e3I9cfD-2" value="UBL" style="text;html=1;align=center;verticalAlign=middle;whiteSpace=wrap;rounded=0;" vertex="1" parent="dvqzMWSoMtfo2e3I9cfD-1">
          <mxGeometry x="170" y="10" width="60" height="30" as="geometry" />
        </mxCell>
      </root>
    </mxGraphModel>
  </diagram>
</mxfile>
